<svg width="127" height="173" viewBox="0 0 127 173" fill="none" xmlns="http://www.w3.org/2000/svg">
<g clip-path="url(#clip0_153_865)">
<path d="M118.322 167.168L99.5635 151.578L86.8732 172.407L67.3389 55.1582L98.7873 49.9183L118.322 167.168Z" fill="#ED1C24"/>
<path d="M4.37109 161.298L24.6312 147.718L35.1151 169.741L66.5929 55.1189L35.8489 46.6759L4.37109 161.298Z" fill="#ED1C24"/>
<path d="M17.0737 115.042C25.1956 122.305 35.0306 127.688 45.8894 130.503L66.5916 55.1189L35.848 46.6759L17.0737 115.042Z" fill="#ED1C24"/>
<path d="M98.7873 49.9183L67.3389 55.1582L79.9244 130.702C91.1378 127.936 101.288 122.438 109.623 114.957L98.7873 49.9183Z" fill="#ED1C24"/>
<path d="M107.935 107.935C132.592 83.2785 132.592 43.3019 107.935 18.6451C83.2785 -6.01171 43.3019 -6.01171 18.6451 18.6451C-6.01171 43.3019 -6.01171 83.2785 18.6451 107.935C43.3019 132.592 83.2785 132.592 107.935 107.935Z" fill="#FFCF03"/>
<path d="M106.891 17.6147C117.71 28.948 124.354 44.3009 124.354 61.2061C124.354 96.076 96.0858 124.344 61.2159 124.344C44.3107 124.344 28.9578 117.7 17.625 106.882C29.1228 118.925 45.3351 126.429 63.3003 126.429C98.1708 126.429 126.439 98.1604 126.439 63.29C126.439 45.3253 118.936 29.1124 106.891 17.6147Z" fill="#FFA506"/>
<path d="M102.18 63.2905C102.18 67.3237 98.6239 70.7457 97.4419 74.385C96.2174 78.1564 97.0407 83.007 94.7562 86.1462C92.4487 89.3168 87.566 90.0212 84.3949 92.3293C81.2557 94.6138 79.0886 99.0533 75.3172 100.278C71.6784 101.459 67.3326 99.1801 63.3005 99.1801C59.2673 99.1801 54.9214 101.459 51.2826 100.278C47.5113 99.0528 45.3441 94.6143 42.205 92.3293C39.0343 90.0218 34.1511 89.3168 31.8436 86.1457C29.5597 83.0065 30.383 78.1563 29.1585 74.3845C27.9765 70.7456 24.4204 67.3242 24.4204 63.2905C24.4204 59.2578 27.9765 55.8358 29.1585 52.1965C30.383 48.4252 29.5597 43.5745 31.8442 40.4353C34.1517 37.2641 39.0343 36.5598 42.2055 34.2523C45.3447 31.9678 47.5113 27.5282 51.2826 26.3037C54.922 25.1217 59.2673 27.4009 63.3005 27.4009C67.3331 27.4009 71.6789 25.1217 75.3177 26.3037C79.0891 27.5282 81.2562 31.9673 84.3954 34.2523C87.566 36.5598 92.4487 37.2647 94.7562 40.4353C97.0407 43.575 96.2174 48.4252 97.4419 52.1965C98.6239 55.8358 102.18 59.2578 102.18 63.2905Z" fill="#FFEC03"/>
<path d="M68.8384 97.1527C64.0092 96.0916 62.5888 96.0922 57.7612 97.1527C56.0486 97.5287 53.707 98.098 52.1537 97.5937C49.4046 96.7013 47.2103 92.4812 43.8658 90.0474C40.5045 87.6022 35.8005 86.7867 34.1251 84.4855C32.4769 82.2204 33.1358 77.5006 31.8422 73.5135C31.2844 71.7973 30.3637 70.2429 29.4728 68.7403C26.5002 63.7267 26.5023 62.8506 29.4728 57.8412C30.3632 56.3386 31.2844 54.7847 31.8417 53.0685C33.1358 49.0861 32.4759 44.3626 34.1256 42.096C35.802 39.7932 40.4941 38.9872 43.8658 36.534C47.2108 34.1003 49.4004 29.8823 52.1542 28.9883C53.7164 28.4808 56.0423 29.0517 57.7617 29.4293C62.593 30.4903 64.0086 30.4903 68.8389 29.4293C70.5588 29.0512 72.8925 28.4834 74.4464 28.9883C77.1944 29.8807 79.3908 34.1008 82.7348 36.5346C86.1227 38.9992 90.7938 39.7863 92.475 42.0965C94.1236 44.361 93.4648 49.0835 94.7579 53.0685C95.3156 54.7847 96.2369 56.3391 97.1277 57.8417C100.1 62.8553 100.097 63.7304 97.1277 68.7408C94.7443 72.7588 94.3038 74.0147 93.8215 78.9325C93.2648 84.6065 92.8652 85.2019 87.5714 87.5032C85.9332 88.2154 84.24 88.9528 82.7343 90.0474C79.3903 92.4817 77.1933 96.7023 74.4464 97.5937C74.0274 97.7299 70.6112 97.5418 68.8384 97.1527Z" fill="#FFDC01"/>
<path d="M93.7691 63.2905C93.7691 80.1182 80.1278 93.7595 63.3006 93.7595C46.4729 93.7595 32.8315 80.1182 32.8315 63.2905C32.8315 46.4633 46.4729 32.8219 63.3006 32.8219C80.1278 32.8219 93.7691 46.4633 93.7691 63.2905Z" fill="#FFEC03"/>
<path d="M53.7046 105.453C56.2357 107.445 56.9108 110.754 56.9108 110.754C56.9108 110.754 53.482 110.834 50.9508 108.843C48.4197 106.852 47.7446 103.542 47.7446 103.542C47.7446 103.542 51.1734 103.462 53.7046 105.453Z" fill="#FFAA2E"/>
<path d="M50.6431 110.63C53.6996 109.569 56.9105 110.754 56.9105 110.754C56.9105 110.754 55.1665 113.66 52.1106 114.721C49.0547 115.783 45.8433 114.597 45.8433 114.597C45.8433 114.597 47.5867 111.691 50.6431 110.63Z" fill="#FFAA2E"/>
<path d="M43.8243 102.775C46.0528 105.091 46.258 108.46 46.258 108.46C46.258 108.46 42.8507 108.075 40.6218 105.76C38.3939 103.444 38.188 100.075 38.188 100.075C38.188 100.075 41.5959 100.46 43.8243 102.775Z" fill="#FFAA2E"/>
<path d="M40.0683 107.487C43.2436 106.85 46.2582 108.459 46.2582 108.459C46.2582 108.459 44.1245 111.102 40.9486 111.739C37.7733 112.376 34.7588 110.767 34.7588 110.767C34.7588 110.767 36.8925 108.124 40.0683 107.487Z" fill="#FFAA2E"/>
<path d="M36.0473 98.9287C37.875 101.562 37.5367 104.921 37.5367 104.921C37.5367 104.921 34.2341 104.009 32.4063 101.376C30.578 98.7428 30.9169 95.3842 30.9169 95.3842C30.9169 95.3842 34.2195 96.2949 36.0473 98.9287Z" fill="#FFAA2E"/>
<path d="M31.5813 102.996C34.8195 102.861 37.5371 104.921 37.5371 104.921C37.5371 104.921 35.0054 107.197 31.7673 107.332C28.5291 107.466 25.8115 105.408 25.8115 105.408C25.8115 105.408 28.3432 103.131 31.5813 102.996Z" fill="#FFAA2E"/>
<path d="M28.7817 93.0693C29.9051 96.0603 28.7482 99.2372 28.7482 99.2372C28.7482 99.2372 25.7693 97.5649 24.6454 94.574C23.5215 91.5825 24.6784 88.4056 24.6784 88.4056C24.6784 88.4056 27.6573 90.0778 28.7817 93.0693Z" fill="#FFAA2E"/>
<path d="M23.4454 95.9487C26.6197 96.5918 28.7481 99.2372 28.7481 99.2372C28.7481 99.2372 25.7304 100.841 22.5566 100.199C19.3818 99.5556 17.2534 96.9097 17.2534 96.9097C17.2534 96.9097 20.2711 95.3061 23.4454 95.9487Z" fill="#FFAA2E"/>
<path d="M23.2898 86.2814C23.6679 89.4488 21.7846 92.2696 21.7846 92.2696C21.7846 92.2696 19.288 89.9547 18.9104 86.7873C18.5328 83.6198 20.4161 80.799 20.4161 80.799C20.4161 80.799 22.9117 83.1144 23.2898 86.2814Z" fill="#FFAA2E"/>
<path d="M17.415 87.8462C20.3474 89.2053 21.7845 92.2696 21.7845 92.2696C21.7845 92.2696 18.4682 93.1311 15.5359 91.7715C12.6036 90.4125 11.1665 87.3482 11.1665 87.3482C11.1665 87.3482 14.4827 86.4872 17.415 87.8462Z" fill="#FFAA2E"/>
<path d="M18.6018 77.7368C18.3326 80.9148 15.9167 83.3108 15.9167 83.3108C15.9167 83.3108 13.9386 80.5539 14.2078 77.376C14.477 74.198 16.8935 71.802 16.8935 71.802C16.8935 71.802 18.8721 74.5589 18.6018 77.7368Z" fill="#FFAA2E"/>
<path d="M12.5291 78.1202C15.1279 80.026 15.9171 83.3103 15.9171 83.3103C15.9171 83.3103 12.493 83.5051 9.8943 81.5993C7.29559 79.694 6.50635 76.4097 6.50635 76.4097C6.50635 76.4097 9.93044 76.2149 12.5291 78.1202Z" fill="#FFAA2E"/>
<path d="M16.1827 69.5893C15.4055 72.6856 12.6344 74.6746 12.6344 74.6746C12.6344 74.6746 11.1246 71.6449 11.9023 68.5487C12.6795 65.4529 15.4499 63.4633 15.4499 63.4633C15.4499 63.4633 16.9604 66.4936 16.1827 69.5893Z" fill="#FFAA2E"/>
<path d="M10.1245 69.0227C12.3839 71.3087 12.6347 74.6747 12.6347 74.6747C12.6347 74.6747 9.22266 74.3342 6.96333 72.0477C4.70399 69.7611 4.45264 66.3951 4.45264 66.3951C4.45264 66.3951 7.86466 66.7366 10.1245 69.0227Z" fill="#FFAA2E"/>
<path d="M15.9202 60.5101C14.4024 63.3277 11.2239 64.5961 11.2239 64.5961C11.2239 64.5961 10.5059 61.2956 12.0236 58.478C13.5414 55.6599 16.7199 54.3914 16.7199 54.3914C16.7199 54.3914 17.4384 57.6924 15.9202 60.5101Z" fill="#FFAA2E"/>
<path d="M10.1824 58.5131C11.8096 61.271 11.2236 64.5961 11.2236 64.5961C11.2236 64.5961 7.99746 63.4502 6.36868 60.6928C4.74096 57.9355 5.32751 54.6103 5.32751 54.6103C5.32751 54.6103 8.55416 55.7557 10.1824 58.5131Z" fill="#FFAA2E"/>
<path d="M17.539 51.3454C15.3901 53.7336 11.9985 54.2312 11.9985 54.2312C11.9985 54.2312 12.0892 50.8574 14.2375 48.4692C16.3858 46.0816 19.7774 45.584 19.7774 45.584C19.7774 45.584 19.6873 48.9583 17.539 51.3454Z" fill="#FFAA2E"/>
<path d="M12.4387 48.078C13.363 51.1349 11.9982 54.2312 11.9982 54.2312C11.9982 54.2312 9.13558 52.3715 8.21226 49.3145C7.28893 46.2575 8.65325 43.1613 8.65325 43.1613C8.65325 43.1613 11.5148 45.021 12.4387 48.078Z" fill="#FFAA2E"/>
<path d="M20.8565 43.8123C18.2122 45.6558 14.7939 45.3788 14.7939 45.3788C14.7939 45.3788 15.6633 42.1144 18.3086 40.2709C20.9529 38.4274 24.3712 38.7039 24.3712 38.7039C24.3712 38.7039 23.5018 41.9688 20.8565 43.8123Z" fill="#FFAA2E"/>
<path d="M16.6484 39.4863C16.8396 42.67 14.7939 45.3787 14.7939 45.3787C14.7939 45.3787 12.4377 42.9261 12.246 39.7424C12.0548 36.5592 14.1005 33.85 14.1005 33.85C14.1005 33.85 16.4567 36.3026 16.6484 39.4863Z" fill="#FFAA2E"/>
<path d="M25.0057 36.9954C22.098 38.4032 18.7671 37.5977 18.7671 37.5977C18.7671 37.5977 20.1513 34.5099 23.059 33.1016C25.9667 31.6938 29.2976 32.4988 29.2976 32.4988C29.2976 32.4988 27.9139 35.5872 25.0057 36.9954Z" fill="#FFAA2E"/>
<path d="M21.5452 32.0688C21.2226 35.2421 18.7663 37.5983 18.7663 37.5983C18.7663 37.5983 16.8348 34.81 17.1574 31.6368C17.4806 28.463 19.9363 26.1068 19.9363 26.1068C19.9363 26.1068 21.8683 28.8951 21.5452 32.0688Z" fill="#FFAA2E"/>
<path d="M71.2815 105.025C68.7503 107.016 68.0752 110.325 68.0752 110.325C68.0752 110.325 71.504 110.405 74.0351 108.414C76.5663 106.423 77.2414 103.113 77.2414 103.113C77.2414 103.113 73.8126 103.034 71.2815 105.025Z" fill="#FFAA2E"/>
<path d="M74.3426 110.201C71.2862 109.14 68.0752 110.325 68.0752 110.325C68.0752 110.325 69.8192 113.232 72.8751 114.293C75.931 115.354 79.1425 114.169 79.1425 114.169C79.1425 114.169 77.3985 111.262 74.3426 110.201Z" fill="#FFAA2E"/>
<path d="M79.9113 102.775C77.6823 105.091 77.4771 108.46 77.4771 108.46C77.4771 108.46 80.8844 108.075 83.1128 105.76C85.3418 103.444 85.5471 100.075 85.5471 100.075C85.5471 100.075 82.1397 100.46 79.9113 102.775Z" fill="#FFAA2E"/>
<path d="M83.6669 107.487C80.4916 106.85 77.4771 108.459 77.4771 108.459C77.4771 108.459 79.6107 111.102 82.7865 111.739C85.9618 112.376 88.9764 110.767 88.9764 110.767C88.9764 110.767 86.8422 108.124 83.6669 107.487Z" fill="#FFAA2E"/>
<path d="M87.6753 98.6061C85.8475 101.239 86.1858 104.597 86.1858 104.597C86.1858 104.597 89.4884 103.687 91.3162 101.053C93.1439 98.4202 92.8056 95.0616 92.8056 95.0616C92.8056 95.0616 89.5031 95.9723 87.6753 98.6061Z" fill="#FFAA2E"/>
<path d="M92.1413 102.673C88.9031 102.539 86.1855 104.597 86.1855 104.597C86.1855 104.597 88.7172 106.875 91.9554 107.009C95.1935 107.143 97.9111 105.085 97.9111 105.085C97.9111 105.085 95.3795 102.808 92.1413 102.673Z" fill="#FFAA2E"/>
<path d="M94.6918 92.9007C93.5679 95.8917 94.7248 99.0686 94.7248 99.0686C94.7248 99.0686 97.7037 97.3963 98.8276 94.4053C99.9515 91.4138 98.7946 88.2369 98.7946 88.2369C98.7946 88.2369 95.8152 89.9092 94.6918 92.9007Z" fill="#FFAA2E"/>
<path d="M100.028 95.78C96.8535 96.4227 94.7246 99.0685 94.7246 99.0685C94.7246 99.0685 97.7428 100.673 100.917 100.03C104.091 99.3869 106.22 96.7411 106.22 96.7411C106.22 96.7411 103.203 95.1374 100.028 95.78Z" fill="#FFAA2E"/>
<path d="M100.485 85.6597C100.107 88.8272 101.99 91.6479 101.99 91.6479C101.99 91.6479 104.486 89.3331 104.864 86.1656C105.242 82.9981 103.358 80.1779 103.358 80.1779C103.358 80.1779 100.863 82.4922 100.485 85.6597Z" fill="#FFAA2E"/>
<path d="M106.36 87.2241C103.427 88.5832 101.99 91.6474 101.99 91.6474C101.99 91.6474 105.306 92.509 108.239 91.1494C111.171 89.7903 112.608 86.7265 112.608 86.7265C112.608 86.7265 109.291 85.865 106.36 87.2241Z" fill="#FFAA2E"/>
<path d="M104.64 77.5781C104.91 80.7561 107.326 83.1521 107.326 83.1521C107.326 83.1521 109.304 80.3953 109.035 77.2173C108.765 74.0399 106.349 71.6434 106.349 71.6434C106.349 71.6434 104.37 74.4007 104.64 77.5781Z" fill="#FFAA2E"/>
<path d="M110.713 77.9625C108.115 79.8684 107.325 83.1521 107.325 83.1521C107.325 83.1521 110.749 83.3475 113.348 81.4417C115.947 79.5358 116.736 76.2516 116.736 76.2516C116.736 76.2516 113.312 76.0567 110.713 77.9625Z" fill="#FFAA2E"/>
<path d="M107.059 69.417C107.837 72.5127 110.608 74.5024 110.608 74.5024C110.608 74.5024 112.118 71.4721 111.34 68.3759C110.563 65.2801 107.792 63.2905 107.792 63.2905C107.792 63.2905 106.282 66.3207 107.059 69.417Z" fill="#FFAA2E"/>
<path d="M113.118 68.8498C110.859 71.1358 110.608 74.5024 110.608 74.5024C110.608 74.5024 114.02 74.1614 116.279 71.8748C118.539 69.5882 118.79 66.2228 118.79 66.2228C118.79 66.2228 115.378 66.5637 113.118 68.8498Z" fill="#FFAA2E"/>
<path d="M107.279 60.6394C108.797 63.4575 111.976 64.7255 111.976 64.7255C111.976 64.7255 112.693 61.425 111.176 58.6074C109.658 55.7892 106.479 54.5213 106.479 54.5213C106.479 54.5213 105.761 57.8223 107.279 60.6394Z" fill="#FFAA2E"/>
<path d="M113.017 58.643C111.389 61.4004 111.976 64.7255 111.976 64.7255C111.976 64.7255 115.202 63.5796 116.83 60.8228C118.458 58.0648 117.872 54.7397 117.872 54.7397C117.872 54.7397 114.645 55.8851 113.017 58.643Z" fill="#FFAA2E"/>
<path d="M105.583 51.4706C107.731 53.8583 111.124 54.3558 111.124 54.3558C111.124 54.3558 111.033 50.982 108.885 48.5944C106.736 46.2062 103.344 45.7087 103.344 45.7087C103.344 45.7087 103.435 49.0825 105.583 51.4706Z" fill="#FFAA2E"/>
<path d="M110.683 48.2021C109.759 51.2591 111.124 54.3553 111.124 54.3553C111.124 54.3553 113.986 52.4955 114.91 49.4386C115.834 46.3816 114.469 43.2854 114.469 43.2854C114.469 43.2854 111.607 45.1451 110.683 48.2021Z" fill="#FFAA2E"/>
<path d="M102.359 44.0637C105.004 45.9072 108.422 45.6306 108.422 45.6306C108.422 45.6306 107.553 42.3657 104.908 40.5222C102.263 38.6787 98.8447 38.9558 98.8447 38.9558C98.8447 38.9558 99.7146 42.2207 102.359 44.0637Z" fill="#FFAA2E"/>
<path d="M106.568 39.7377C106.377 42.9214 108.422 45.6306 108.422 45.6306C108.422 45.6306 110.779 43.1775 110.97 39.9943C111.161 36.8106 109.116 34.1014 109.116 34.1014C109.116 34.1014 106.76 36.5545 106.568 39.7377Z" fill="#FFAA2E"/>
<path d="M97.9691 37.2982C100.877 38.7059 104.208 37.9005 104.208 37.9005C104.208 37.9005 102.823 34.8126 99.9163 33.4043C97.0081 31.9966 93.6777 32.8015 93.6777 32.8015C93.6777 32.8015 95.0619 35.8899 97.9691 37.2982Z" fill="#FFAA2E"/>
<path d="M101.429 32.3715C101.752 35.5448 104.208 37.901 104.208 37.901C104.208 37.901 106.14 35.1127 105.817 31.9395C105.494 28.7658 103.038 26.4095 103.038 26.4095C103.038 26.4095 101.106 29.1978 101.429 32.3715Z" fill="#FFAA2E"/>
<path d="M95.63 27.5685C95.498 27.7046 95.3493 27.8403 95.1749 27.9728C95.1241 28.0116 95.0717 28.0383 95.0199 28.0713C105.183 36.7247 111.583 49.2485 111.583 63.158C111.583 89.2085 89.1395 110.402 61.5546 110.402C33.9697 110.402 11.5271 89.2085 11.5271 63.158C11.5271 49.8649 17.3724 37.8387 26.7611 29.2455C26.4946 29.1674 26.2259 29.0622 25.9547 28.9286C16.5601 37.6439 10.7222 49.7686 10.7222 63.158C10.7222 89.6274 33.5255 111.162 61.5551 111.162C89.5847 111.162 112.388 89.6274 112.388 63.158C112.387 49.0579 105.915 36.3586 95.63 27.5685Z" fill="#FF9912"/>
<path d="M31.738 30.9674C28.5695 31.6389 25.5371 30.0619 25.5371 30.0619C25.5371 30.0619 27.6414 27.3967 30.8089 26.7253C33.9774 26.0539 37.0098 27.6308 37.0098 27.6308C37.0098 27.6308 34.906 30.296 31.738 30.9674Z" fill="#FFAA2E"/>
<path d="M29.5963 25.362C28.5007 28.363 25.5375 30.0625 25.5375 30.0625C25.5375 30.0625 24.3507 26.8961 25.4463 23.8951C26.543 20.8942 29.5057 19.1942 29.5057 19.1942C29.5057 19.1942 30.6919 22.3611 29.5963 25.362Z" fill="#FFAA2E"/>
<path d="M91.5819 30.9674C94.7504 31.6389 97.7827 30.0619 97.7827 30.0619C97.7827 30.0619 95.6784 27.3967 92.511 26.7253C89.3425 26.0539 86.3101 27.6308 86.3101 27.6308C86.3101 27.6308 88.4139 30.296 91.5819 30.9674Z" fill="#FFAA2E"/>
<path d="M93.7237 25.362C94.8198 28.363 97.783 30.0625 97.783 30.0625C97.783 30.0625 98.9698 26.8961 97.8736 23.8951C96.778 20.8942 93.8148 19.1942 93.8148 19.1942C93.8148 19.1942 92.6281 22.3611 93.7237 25.362Z" fill="#FFAA2E"/>
<path d="M51.3763 20.7319L47.052 19.4901L43.1021 21.6468L42.9465 17.1496L39.6748 14.0602L43.9039 12.522L45.8317 8.45586L48.6006 12.003L53.0638 12.5796L50.5462 16.3096L51.3763 20.7319Z" fill="#FFEC03"/>
<path d="M80.1429 21.1115L83.8629 23.6438L84.4573 19.1832L88.0149 16.4279L83.9566 14.4849L82.4358 10.2491L79.3327 13.5082L74.835 13.6459L76.9759 17.6042L75.717 21.9249L80.1429 21.1115Z" fill="#FFEC03"/>
<path d="M67.5334 20.1133L63.4484 18.2253L59.2156 19.753L59.7493 15.2846L56.9883 11.7317L61.4027 10.8581L63.9286 7.13344L66.1241 11.0624L70.4469 12.3141L67.3883 15.6156L67.5334 20.1133Z" fill="#FFEC03"/>
<path d="M51.0156 55.5508C53.6426 55.5605 55.5859 57.084 55.6055 59.3008C55.5859 60.9805 54.3945 62.3086 52.6172 62.8164V63.8711C53.8477 63.793 55.0781 63.6758 56.2305 63.5195L56.4648 65.7656C52.832 66.4199 48.8184 66.5078 45.8594 66.5078L45.5469 64.0664C46.709 64.0664 48.0469 64.0566 49.4531 64.0176V62.8262C47.627 62.3379 46.416 61 46.4258 59.3008C46.416 57.084 48.3594 55.5605 51.0156 55.5508ZM47.7734 72.6602V67.4258H50.9375V70.1797H60.8789V72.6602H47.7734ZM49.3359 59.3008C49.3164 60.209 50.0293 60.6582 51.0156 60.668C52.0117 60.6582 52.666 60.209 52.6562 59.3008C52.666 58.3242 52.002 57.9043 51.0156 57.8945C50.0293 57.9043 49.3164 58.3242 49.3359 59.3008ZM57.1484 68.6562V54.9062H60.2734V60.2969H62.3438V62.8945H60.2734V68.6562H57.1484ZM79.4141 68.5391V71.0781H62.9102V68.5391H66.875V66.1953H64.707V59.8086H74.5312V58.4414H64.6875V55.9414H77.6367V62.2695H67.8516V63.6758H78.0469V66.1953H75.6836V68.5391H79.4141ZM69.9219 68.5391H72.5977V66.1953H69.9219V68.5391Z" fill="#145D28"/>
</g>
<defs>
<clipPath id="clip0_153_865">
<rect width="127" height="173" fill="white"/>
</clipPath>
</defs>
</svg>
